HIERARCHY
ROOT Hips
{
	OFFSET	0	0	0
	CHANNELS 6  Xposition Yposition Zposition Xrotation Yrotation Zrotation
	JOINT Spine
	{
		OFFSET	0	7.36801	1.47921
		CHANNELS 3  Xrotation Yrotation Zrotation
		JOINT Spine1
		{
			OFFSET	0	12.6146	-2.2526
			CHANNELS 3  Xrotation Yrotation Zrotation
			JOINT Spine2
			{
				OFFSET	0	9.56229	1.02493
				CHANNELS 3  Xrotation Yrotation Zrotation
				JOINT Spine3
				{
					OFFSET	0	11.4432	3.40143
					CHANNELS 3  Xrotation Yrotation Zrotation
					JOINT Spine4
					{
						OFFSET	0	16.9396	-1.7345
						CHANNELS 3  Xrotation Yrotation Zrotation
						JOINT Neck
						{
							OFFSET	0	8.08684	-5.66529
							CHANNELS 3  Xrotation Yrotation Zrotation
							JOINT Head
							{
								OFFSET	0	9.70872	-2.90586
								CHANNELS 3  Xrotation Yrotation Zrotation
								End Site
								{
									OFFSET	0	20.2509	-0.979882
								}
							}
						}
					}
					JOINT LeftShoulder
					{
						OFFSET	-4.86562	20.5888	-9.70871
						CHANNELS 3  Xrotation Yrotation Zrotation
						JOINT LeftArm
						{
							OFFSET	-10.6038	-2.90585	3.72808
							CHANNELS 3  Xrotation Yrotation Zrotation
							JOINT LeftForeArm
							{
								OFFSET	-30.8337	-1.4073	2.20088
								CHANNELS 3  Xrotation Yrotation Zrotation
								JOINT LeftHand
								{
									OFFSET	-25.1332	-1.73684	1.79398
									CHANNELS 3  Xrotation Yrotation Zrotation
									End Site
									{
										OFFSET	-9.17235	-0.633862	0.65467
									}
								}
							}
						}
					}
					JOINT RightShoulder
					{
						OFFSET	4.86562	20.5888	-9.70871
						CHANNELS 3  Xrotation Yrotation Zrotation
						JOINT RightArm
						{
							OFFSET	10.6038	-2.90585	3.72808
							CHANNELS 3  Xrotation Yrotation Zrotation
							JOINT RightForeArm
							{
								OFFSET	30.8337	-1.4073	2.20088
								CHANNELS 3  Xrotation Yrotation Zrotation
								JOINT RightHand
								{
									OFFSET	25.1332	-1.73684	1.79398
									CHANNELS 3  Xrotation Yrotation Zrotation
									End Site
									{
										OFFSET	9.17235	-0.633862	0.65467
									}
								}
							}
						}
					}
				}
			}
		}
	}
	JOINT LeftUpLeg
	{
		OFFSET	-10.0134	-3.684	-0.739604
		CHANNELS 3  Xrotation Yrotation Zrotation
		JOINT LeftLeg
		{
			OFFSET	-2.30148	-45.0967	-0.70496
			CHANNELS 3  Xrotation Yrotation Zrotation
			JOINT LeftFoot
			{
				OFFSET	-2.24997	-41.4741	3.56677
				CHANNELS 3  Xrotation Yrotation Zrotation
				JOINT LeftToeBase
				{
					OFFSET	0	-5.07523	-13.4798
					CHANNELS 3  Xrotation Yrotation Zrotation
					End Site
					{
						OFFSET	0	-2.03009	-8.12037
					}
				}
			}
		}
	}
	JOINT RightUpLeg
	{
		OFFSET	10.0134	-3.684	-0.739604
		CHANNELS 3  Xrotation Yrotation Zrotation
		JOINT RightLeg
		{
			OFFSET	2.30148	-45.0967	-0.70496
			CHANNELS 3  Xrotation Yrotation Zrotation
			JOINT RightFoot
			{
				OFFSET	2.24997	-41.4741	3.56677
				CHANNELS 3  Xrotation Yrotation Zrotation
				JOINT RightToeBase
				{
					OFFSET	0	-5.07523	-13.4798
					CHANNELS 3  Xrotation Yrotation Zrotation
					End Site
					{
						OFFSET	0	-2.03009	-8.12037
					}
				}
			}
		}
	}
}
MOTION
Frames: 8
Frame Time: 0.020408
 -252.543 93.4887 342.75 13.1973 -41.4749 32.284 179.997 -179.973 173.873 171.108 -179.946 169.789 170.907 -179.838 169.789 173.532 -179.973 173.873 178.307 179.94 177.959 3.6197 -1.98986 -1.02878 1.08657 -2.07782 -0.457629 1.50691 22.9811 2.08792 28.8352 -64.6266 91.2753 68.6429 -84.8108 66.7344 -0 -2.67851 1.20255 1.30632 28.6297 -2.8376 89.8478 119.302 171.651 11.335 49.625 -6.99001 -0 9.96748 7.36043 8.26411 -17.6976 -10.0792 132.465 179.839 -179.918 23.1842 0.267762 1.6952 0.211065 0 0 6.21264 9.59495 -25.2292 165.367 -156.856 -179.936 179.289 -179.923 -176.041 179.855 180 -180
 -252.644 93.3414 342.705 13.6511 -41.9199 33.0213 179.997 -179.968 173.824 171.017 -179.936 169.706 170.813 -179.809 169.706 173.474 -179.968 173.824 178.273 179.938 177.942 3.59635 -1.83984 -1.51827 1.08264 -1.26994 -0.55134 1.50664 23.0048 2.08649 27.6603 -65.1285 90.5969 63.3209 -84.522 61.3895 -0 -2.20242 0.984026 1.50004 28.4009 -3.25898 90.2991 120.051 172.445 11.2259 48.8261 -6.88002 -0 9.93516 7.52796 7.99799 -19.6695 -10.0307 131.718 -178.845 -179.801 22.8969 0.221177 1.88881 0.272375 0 0 6.1355 9.82419 -25.7853 164.311 -156.975 -179.983 0.0634444 -0.0543359 3.91445 179.852 180 -180
 -252.915 93.2172 342.64 14.1932 -42.3123 33.6649 179.997 -179.976 173.782 170.971 -179.952 169.637 170.731 -179.857 169.637 173.315 -179.976 173.782 178.556 179.948 177.928 4.44738 -1.2144 -1.50597 1.33848 -0.203179 -0.478421 1.44385 23.0307 1.99834 26.977 -65.4707 90.3395 59.7638 -84.2203 57.8267 -0 -1.74481 0.827409 1.42462 28.267 -3.09511 90.4281 121.097 173.299 11.1184 47.8534 -6.70339 -0 9.8467 7.71131 7.57978 -20.9343 -9.96602 131.306 -177.715 -179.711 22.9555 0.151435 2.04187 0.326167 0 0 6.03984 10.0588 -26.1527 163.482 -157.092 179.908 0.705492 -0.0160389 3.85847 179.85 180 -180
 -252.825 93.1289 342.513 14.5679 -42.4801 34.0568 179.999 -179.986 173.75 170.944 -179.973 169.584 170.693 -179.918 169.584 173.242 -179.986 173.75 178.67 179.952 177.917 4.80114 -0.647788 -1.60279 1.44506 0.849838 -0.440191 1.4239 23.0458 1.97007 27.5822 -65.6381 91.0724 59.3219 -84.0467 57.3607 -0 -1.40197 0.706289 1.52363 28.0791 -3.31055 90.5994 121.708 173.914 11.0998 47.2673 -6.48774 -0 9.87381 7.90305 7.23335 -21.4959 -10.0867 130.974 -176.807 -179.658 23.151 0.103228 2.13095 0.372996 0 0 5.92824 10.2349 -26.3368 163.245 -157.182 179.879 1.09616 -0.013691 3.80464 179.848 180 -180
 -252.916 93.048 342.429 14.7484 -42.5898 34.2075 180 -179.999 173.746 170.926 -179.998 169.576 170.668 -179.994 169.576 173.179 -179.999 173.746 178.778 179.956 177.916 5.12274 -0.462825 -2.19451 1.54526 1.87119 -0.559582 1.42355 22.9813 1.97227 28.1043 -65.6081 91.4078 60.1636 -83.9151 58.2732 -0 -1.11933 0.489264 1.4527 27.5325 -3.15654 90.7422 121.426 173.975 11.2594 47.3429 -6.53888 -0 10.0816 8.0635 6.98844 -21.2101 -9.79604 130.777 -175.922 -179.793 23.384 -0.068289 2.1908 0.414235 0 0 5.71974 10.3516 -26.347 163.214 -157.259 179.871 1.56155 -0.0232321 3.63984 179.839 180 -180
 -252.994 92.9845 342.257 14.8024 -42.7233 34.3114 0.000304394 0.00277285 -6.26466 170.905 179.995 169.559 170.651 179.984 169.559 173.168 179.997 173.735 178.761 179.955 177.912 5.07593 -0.56635 -2.96117 1.53801 2.61541 -0.74869 1.4529 22.9008 2.01639 27.688 -65.6221 91.1699 56.4635 -83.4759 54.624 -0 -0.694493 0.28467 1.39147 26.9949 -3.02335 90.4237 120.926 174.03 11.5009 47.585 -6.74999 -0 10.2804 8.17236 6.8636 -20.9453 -9.63188 130.574 -175.311 -179.953 23.6666 -0.073833 2.20233 0.463827 0 0 5.61616 10.4066 -26.3014 163.247 -157.34 179.896 1.83254 -0.00917508 3.40409 179.832 180 -180
 -252.909 92.9447 342.26 15.0868 -42.6699 34.638 0.000545641 0.00492758 -6.31873 170.875 179.99 169.469 170.599 179.971 169.469 173.078 179.995 173.681 178.915 179.96 177.894 5.55033 -0.042503 -3.08194 1.68062 3.64173 -0.727564 1.45549 22.9161 2.01934 27.6981 -65.6398 91.4782 57.004 -83.2272 55.0547 -0 -0.402464 0.0368051 1.31744 26.3625 -2.862 90.0965 120.357 173.988 11.8217 48.093 -7.00469 -0 10.4882 8.27646 6.52619 -20.7383 -9.78566 130.526 -174.899 179.961 23.9556 -0.0254085 2.19924 0.507467 0 0 5.56129 10.4352 -26.4276 163.043 -157.337 179.884 1.86787 -0.0113661 3.18192 179.823 180 -180
 -252.86 92.9128 342.198 15.3054 -42.6012 34.7922 0.000571312 0.00515965 -6.31844 170.853 179.99 169.469 170.568 179.969 169.469 173.034 179.995 173.682 178.973 179.962 177.894 5.73652 0.242552 -3.30358 1.7381 4.38004 -0.752954 1.46089 22.8836 2.02823 27.32 -65.5272 91.1646 56.5786 -82.9234 54.6496 -0 -0.140882 -0.220483 1.25984 26.2697 -2.73671 89.8144 120.085 174.198 12.1351 48.4774 -7.37595 -0 10.6139 8.4016 6.32367 -20.4228 -9.94996 130.483 -174.867 -179.992 24.1693 -0.0198668 1.94899 0.545588 0 0 5.46829 10.4057 -26.4251 162.85 -157.374 179.925 1.94222 -0.00199808 2.99642 179.816 180 -180
